<svg width="64" height="64" viewBox="0 0 64 64" fill="none" xmlns="http://www.w3.org/2000/svg">
  <rect width="64" height="64" rx="16" fill="#F7F1E3"/>
  <path d="M32 20.5c-3.4-2.9-8-4.3-13-4.3-1 0-1.7.8-1.7 1.7v20.4c0 1 .8 1.7 1.7 1.7 5 0 9.6 1.4 13 4.3 3.4-2.9 8-4.3 13-4.3 1 0 1.7-.8 1.7-1.7V17.9c0-1-.8-1.7-1.7-1.7-5 0-9.6 1.4-13 4.3z" fill="none" stroke="#6D2C33" stroke-width="2.2" stroke-linejoin="round"/>
  <path d="M32 20.5v23.8" stroke="#6D2C33" stroke-width="2.2" stroke-linecap="round"/>
  <path d="M21.5 24.2c2.7.3 5.4 1.1 7.5 2.6M21.5 30c2.7.3 5.4 1.1 7.5 2.6M21.5 35.8c2.7.3 5.4 1.1 7.5 2.6" stroke="#6D2C33" stroke-width="1.4" stroke-linecap="round"/>
  <path d="M42.5 24.2c-2.7.3-5.4 1.1-7.5 2.6M42.5 30c-2.7.3-5.4 1.1-7.5 2.6M42.5 35.8c-2.7.3-5.4 1.1-7.5 2.6" stroke="#6D2C33" stroke-width="1.4" stroke-linecap="round"/>
</svg>
